<svg id="Layer_1" data-name="Layer 1" xmlns="http://www.w3.org/2000/svg" width="179.11" height="59.07" viewBox="0 0 179.11 59.07">
  <title>Artboard 1</title>
  <path d="M174.45,49.87a2,2,0,1,1-1.94,2,1.93,1.93,0,0,1,1.94-2v-.34a2.35,2.35,0,1,0,2.35,2.33,2.34,2.34,0,0,0-2.35-2.33v.34Z" fill="#fff" fill-rule="evenodd"/>
  <path d="M174,50.84h.56c.29,0,.6.06.6.42s-.35.45-.72.45H174v.35h.45l.75,1.18h.46L174.84,52a.71.71,0,0,0,.72-.75c0-.53-.31-.78-1-.78h-1.06v2.74H174v-2.4Z" fill="#fff" fill-rule="evenodd"/>
  <path d="M105.86,45.82c1.89,0,2.45,1.61,2.45,3.23s-.56,3.21-2.45,3.21-2.43-1.61-2.43-3.21.56-3.23,2.43-3.23V43.74a4.93,4.93,0,0,0-5.19,5.31,5.2,5.2,0,1,0,10.41,0,4.94,4.94,0,0,0-5.21-5.31v2.08Z" fill="#fff" fill-rule="evenodd"/>
  <path d="M136.47,46.65c0-2.41-2.41-2.86-4.42-2.86-2.26,0-4.57.78-4.73,3.37h2.76c.1-1.09.78-1.52,1.83-1.52s1.79.18,1.79,1.36-1.58,1.07-3.27,1.32S127,49.1,127,51.37c0,2.06,1.52,3,3.42,3a4.61,4.61,0,0,0,3.39-1.25,4.09,4.09,0,0,0,.19,1h2.8a5.16,5.16,0,0,1-.35-2.24l-2.76-1.65a2.05,2.05,0,0,1-2.24,2.31c-.89,0-1.69-.25-1.69-1.28s.78-1.3,1.63-1.48a5.5,5.5,0,0,0,2.3-.58v1l2.76,1.65V46.65Z" fill="#fff" fill-rule="evenodd"/>
  <path d="M94.56,29.22c0-2.41-2.41-2.86-4.42-2.86-2.26,0-4.57.78-4.73,3.37h2.76c.1-1.09.78-1.52,1.83-1.52s1.79.18,1.79,1.36-1.58,1.07-3.27,1.32-3.42.78-3.42,3.05c0,2.06,1.52,3,3.42,3a4.61,4.61,0,0,0,3.38-1.25,4.1,4.1,0,0,0,.19,1h2.8a5.15,5.15,0,0,1-.35-2.24L91.8,32.8a2.05,2.05,0,0,1-2.24,2.31c-.89,0-1.69-.25-1.69-1.28s.78-1.3,1.63-1.48a5.5,5.5,0,0,0,2.3-.58v1l2.76,1.65V29.22Z" fill="#fff" fill-rule="evenodd"/>
  <path d="M133.4,32.28c.19-3.09-1.46-6-4.88-6a5,5,0,0,0-5.14,5.31c0,3.11,2,5.29,5.14,5.29a4.52,4.52,0,0,0,4.71-3.38h-2.43a2.27,2.27,0,0,1-2.18,1.3c-1.54,0-2.39-.8-2.47-2.55V30.53a2.18,2.18,0,0,1,2.3-2.14c1.34,0,1.95.74,2.2,2.14h-4.49v1.75Z" fill="#fff" fill-rule="evenodd"/>
  <path d="M117,32.28c.19-3.09-1.46-6-4.88-6A5,5,0,0,0,107,31.62c0,3.11,2,5.29,5.14,5.29a4.52,4.52,0,0,0,4.71-3.38h-2.43a2.27,2.27,0,0,1-2.18,1.3c-1.54,0-2.39-.8-2.47-2.55V30.53a2.18,2.18,0,0,1,2.3-2.14c1.34,0,1.95.74,2.2,2.14h-4.49v1.75Z" fill="#fff" fill-rule="evenodd"/>
  <polygon points="75.49 16.23 76.54 19.32 79.71 19.32 74.52 5.43 71.39 5.43 66.11 19.32 69.21 19.32 70.3 16.23 71.09 13.95 72.9 8.85 72.94 8.85 74.69 13.95 71.09 13.95 70.3 16.23 75.49 16.23 75.49 16.23" fill="#fff" fill-rule="evenodd"/>
  <path d="M80.54,9.26h2.61v1.36h0A3.63,3.63,0,0,1,86.26,9a3,3,0,0,1,2.94,1.67,3.65,3.65,0,0,1,3-1.67c2.14,0,3.68,1,3.68,3.6v6.73H93.15v-5.7c0-1.34-.12-2.45-1.69-2.45s-1.85,1.28-1.85,2.55v5.6H86.85V13.68c0-1.17.08-2.51-1.67-2.51-.54,0-1.87.35-1.87,2.32v5.84H80.54V9.26Z" fill="#fff" fill-rule="evenodd"/>
  <path d="M106.84,15c.19-3.09-1.46-6-4.88-6a5,5,0,0,0-5.14,5.31c0,3.11,2,5.29,5.14,5.29a4.52,4.52,0,0,0,4.71-3.39h-2.43a2.27,2.27,0,0,1-2.18,1.3c-1.54,0-2.39-.8-2.47-2.55V13.21a2.18,2.18,0,0,1,2.3-2.14c1.34,0,1.95.74,2.2,2.14H99.58V15Z" fill="#fff" fill-rule="evenodd"/>
  <path d="M107.89,9.26h2.63v1.87h0A3.56,3.56,0,0,1,113.77,9a2.06,2.06,0,0,1,.6.1v2.57a5.06,5.06,0,0,0-1-.1c-2,0-2.72,1.46-2.72,3.23v4.53h-2.76V9.26Z" fill="#fff" fill-rule="evenodd"/>
  <polygon points="115.22 9.26 117.99 9.26 117.99 19.32 115.22 19.32 115.22 9.26 115.22 9.26" fill="#fff" fill-rule="evenodd"/>
  <polygon points="117.99 7.71 115.22 7.71 115.22 5.43 117.99 5.43 117.99 7.71 117.99 7.71" fill="#fff" fill-rule="evenodd"/>
  <path d="M126.33,12.8a1.88,1.88,0,0,0-2-1.73c-1.77,0-2.35,1.79-2.35,3.27s.56,3.17,2.3,3.17a2.13,2.13,0,0,0,2.2-2h2.67a4.5,4.5,0,0,1-4.84,4.12,4.88,4.88,0,0,1-5.08-5.16c0-3.13,1.87-5.45,5.14-5.45,2.37,0,4.55,1.24,4.73,3.81Z" fill="#fff" fill-rule="evenodd"/>
  <path d="M139.05,11.85c0-2.41-2.41-2.86-4.42-2.86-2.26,0-4.57.78-4.73,3.37h2.76c.1-1.09.78-1.52,1.83-1.52s1.79.17,1.79,1.36-1.58,1.07-3.27,1.32-3.42.78-3.42,3.05c0,2.06,1.52,3,3.42,3a4.61,4.61,0,0,0,3.39-1.24,4.1,4.1,0,0,0,.19,1h2.8a5.15,5.15,0,0,1-.35-2.24l-2.76-1.65a2.05,2.05,0,0,1-2.24,2.31c-.89,0-1.69-.25-1.69-1.28s.78-1.3,1.63-1.48a5.5,5.5,0,0,0,2.3-.58v1l2.76,1.65V11.85Z" fill="#fff" fill-rule="evenodd"/>
  <path d="M140.88,9.26h2.63v1.4h.06A3.59,3.59,0,0,1,146.63,9c2.94,0,3.68,1.65,3.68,4.14v6.19h-2.76V13.64c0-1.65-.49-2.47-1.77-2.47-1.5,0-2.14.84-2.14,2.88v5.27h-2.76V9.26Z" fill="#fff" fill-rule="evenodd"/>
  <path d="M67.83,22.77h6c3.6,0,6.3,2.26,6.3,6.87,0,4-2.06,7-6.3,7h-6l3.05-2.57h2.72c1.77,0,3.46-1.09,3.46-4.16,0-2.8-1-4.59-4-4.59H70.88v8.75l-3.05,2.57V22.77Z" fill="#fff" fill-rule="evenodd"/>
  <polygon points="81.25 26.6 84.01 26.6 84.01 36.66 81.25 36.66 81.25 26.6 81.25 26.6" fill="#fff" fill-rule="evenodd"/>
  <polygon points="84.01 25.04 81.25 25.04 81.25 22.77 84.01 22.77 84.01 25.04 84.01 25.04" fill="#fff" fill-rule="evenodd"/>
  <path d="M103.7,31.64c0-1.69-.72-3.23-2.35-3.23S99,29.95,99,31.64s.72,3.21,2.35,3.21,2.35-1.54,2.35-3.21l2.76,0c0,3.7-2.16,5.31-4.16,5.31A3.48,3.48,0,0,1,99,35.37h0v1.28H96.33V22.77h2.76v5.06h0a3.71,3.71,0,0,1,3.17-1.5c2,0,4.16,1.61,4.16,5.29l-2.76,0Z" fill="#fff" fill-rule="evenodd"/>
  <path d="M121.31,26.6h2v1.85h-2v5c0,.93.23,1.17,1.17,1.17a4.27,4.27,0,0,0,.86-.08v2.16a10.61,10.61,0,0,1-1.61.1c-1.69,0-3.17-.39-3.17-2.39V28.45h-1.67V26.6h1.67v-3h2.76v3Z" fill="#fff" fill-rule="evenodd"/>
  <path d="M136.71,33.39c0,1.21,1,1.69,2.12,1.69.8,0,1.81-.31,1.81-1.28s-1.15-1.13-3.13-1.56c-1.6-.35-3.19-.91-3.19-2.68,0-2.57,2.22-3.23,4.38-3.23s4.22.74,4.44,3.21H140.5c-.08-1.07-.89-1.36-1.89-1.36-.62,0-1.54.12-1.54.93,0,1,1.56,1.13,3.13,1.5s3.19,1,3.19,2.82c0,2.65-2.3,3.5-4.59,3.5s-4.61-.88-4.73-3.54Z" fill="#fff" fill-rule="evenodd"/>
  <polygon points="75.41 50.98 76.46 54.07 79.63 54.07 74.44 40.18 71.31 40.18 66.03 54.07 69.13 54.07 70.22 50.98 71.02 48.7 72.83 43.61 72.86 43.61 74.61 48.7 71.02 48.7 70.22 50.98 75.41 50.98 75.41 50.98" fill="#fff" fill-rule="evenodd"/>
  <path d="M82.69,50.8c0,1.21,1,1.69,2.12,1.69.8,0,1.81-.31,1.81-1.28s-1.15-1.13-3.13-1.56c-1.6-.35-3.19-.91-3.19-2.68,0-2.57,2.22-3.23,4.38-3.23s4.22.74,4.44,3.21H86.48c-.08-1.07-.89-1.36-1.89-1.36-.62,0-1.54.12-1.54.93,0,1,1.56,1.13,3.13,1.5s3.19,1,3.19,2.82c0,2.65-2.3,3.5-4.59,3.5s-4.61-.88-4.73-3.54Z" fill="#fff" fill-rule="evenodd"/>
  <path d="M93.13,50.8c0,1.21,1,1.69,2.12,1.69.8,0,1.81-.31,1.81-1.28s-1.15-1.13-3.13-1.56c-1.6-.35-3.19-.91-3.19-2.68,0-2.57,2.22-3.23,4.38-3.23s4.22.74,4.44,3.21H96.92c-.08-1.07-.89-1.36-1.89-1.36-.62,0-1.54.12-1.54.93,0,1,1.56,1.13,3.13,1.5s3.19,1,3.19,2.82c0,2.65-2.3,3.5-4.59,3.5s-4.61-.88-4.73-3.54Z" fill="#fff" fill-rule="evenodd"/>
  <path d="M119.3,47.56a1.88,1.88,0,0,0-2-1.73c-1.77,0-2.35,1.79-2.35,3.27s.56,3.17,2.3,3.17a2.13,2.13,0,0,0,2.2-2h2.67a4.5,4.5,0,0,1-4.84,4.12,4.88,4.88,0,0,1-5.08-5.16c0-3.13,1.87-5.45,5.14-5.45,2.37,0,4.55,1.24,4.73,3.81Z" fill="#fff" fill-rule="evenodd"/>
  <polygon points="123.23 44.02 125.99 44.02 125.99 54.07 123.23 54.07 123.23 44.02 123.23 44.02" fill="#fff" fill-rule="evenodd"/>
  <polygon points="125.99 42.46 123.23 42.46 123.23 40.18 125.99 40.18 125.99 42.46 125.99 42.46" fill="#fff" fill-rule="evenodd"/>
  <path d="M141.27,44h2v1.85h-2v5c0,.93.23,1.17,1.17,1.17a4.27,4.27,0,0,0,.86-.08v2.16a10.58,10.58,0,0,1-1.61.1c-1.69,0-3.17-.39-3.17-2.39V45.86h-1.67V44h1.67V41h2.76v3Z" fill="#fff" fill-rule="evenodd"/>
  <polygon points="144.61 44.02 147.37 44.02 147.37 54.07 144.61 54.07 144.61 44.02 144.61 44.02" fill="#fff" fill-rule="evenodd"/>
  <polygon points="147.37 42.46 144.61 42.46 144.61 40.18 147.37 40.18 147.37 42.46 147.37 42.46" fill="#fff" fill-rule="evenodd"/>
  <path d="M153.88,45.82c1.89,0,2.45,1.61,2.45,3.23s-.56,3.21-2.45,3.21-2.43-1.61-2.43-3.21.56-3.23,2.43-3.23V43.74a4.93,4.93,0,0,0-5.19,5.31,5.2,5.2,0,1,0,10.41,0,4.94,4.94,0,0,0-5.21-5.31v2.08Z" fill="#fff" fill-rule="evenodd"/>
  <path d="M160.41,44H163v1.4h.06a3.59,3.59,0,0,1,3.07-1.67c2.94,0,3.68,1.65,3.68,4.14v6.19h-2.76V48.39c0-1.65-.49-2.47-1.77-2.47-1.5,0-2.14.84-2.14,2.88v5.27h-2.76V44Z" fill="#fff" fill-rule="evenodd"/>
  <path d="M61,49.87a2,2,0,1,1-1.94,2,1.93,1.93,0,0,1,1.94-2v-.34a2.35,2.35,0,1,0,2.35,2.33A2.34,2.34,0,0,0,61,49.52v.34Z" fill="#fff" fill-rule="evenodd"/>
  <path d="M60.55,50.84h.56c.29,0,.6.06.6.42s-.35.45-.72.45h-.45v.35H61l.75,1.18h.46L61.42,52a.71.71,0,0,0,.72-.75c0-.53-.31-.78-1-.78H60.12v2.74h.43v-2.4Z" fill="#fff" fill-rule="evenodd"/>
  <polygon points="29.14 27.09 16.75 27.09 1.06 54.23 32.13 54.23 38.56 43.56 19.73 43.56 29.14 27.09 29.14 27.09" fill="#fff" fill-rule="evenodd"/>
  <polygon points="23.02 16.26 44.68 54.23 57.23 54.23 29.14 5.75 23.02 16.26 23.02 16.26" fill="#fff" fill-rule="evenodd"/>
</svg>
